<?xml version="1.0" standalone="no"?>
<!DOCTYPE svg PUBLIC "-//W3C//DTD SVG 20010904//EN"
 "http://www.w3.org/TR/2001/REC-SVG-20010904/DTD/svg10.dtd">
<svg version="1.0" xmlns="http://www.w3.org/2000/svg"
 width="862.000000pt" height="360.000000pt" viewBox="0 0 862.000000 360.000000"
 preserveAspectRatio="xMidYMid meet">

<g transform="translate(0.000000,360.000000) scale(0.100000,-0.100000)"
fill="#000000" stroke="none">
<path d="M4753 2368 c-9 -15 -8 -377 2 -408 6 -18 15 -20 85 -20 l79 0 6 58
c3 31 7 63 8 71 4 29 22 15 72 -56 l50 -72 83 -1 82 0 0 220 0 220 -74 0 c-48
0 -77 -5 -84 -13 -6 -7 -12 -41 -14 -77 -2 -35 -8 -65 -13 -67 -6 -2 -35 33
-64 77 l-54 80 -78 0 c-51 0 -81 -4 -86 -12z"/>
<path d="M2705 2356 c-157 -58 -184 -362 -38 -431 57 -27 166 -26 221 3 44 23
51 43 36 99 -6 21 -8 22 -36 7 -41 -21 -80 -15 -96 16 -18 35 -11 140 12 175
17 26 22 27 71 22 52 -5 53 -5 59 25 9 47 9 48 -37 68 -61 27 -143 34 -192 16z"/>
<path d="M3655 2361 l-50 -6 0 -213 c1 -171 4 -215 15 -222 26 -16 127 -22
206 -11 203 28 295 142 172 211 -36 20 -39 24 -22 33 46 24 64 50 64 92 0 71
-44 96 -200 115 -88 10 -104 11 -185 1z m250 -111 c4 -6 -13 -19 -37 -30 -37
-17 -43 -17 -46 -4 -7 30 7 44 42 44 19 0 38 -5 41 -10z m8 -177 c6 -3 -14
-18 -44 -34 -30 -15 -57 -25 -61 -22 -12 7 -9 48 5 62 12 12 77 8 100 -6z"/>
<path d="M3109 2349 c-9 -5 -81 -297 -95 -388 l-7 -44 108 6 c113 6 125 11
125 55 0 19 5 22 45 22 40 0 45 -3 45 -22 0 -44 14 -51 104 -56 85 -4 86 -4
86 19 0 24 -81 399 -88 409 -5 7 -312 6 -323 -1z m191 -165 c6 -32 13 -69 15
-81 5 -20 1 -23 -29 -23 -24 0 -34 4 -31 13 2 6 9 45 15 85 7 40 14 71 16 69
2 -2 9 -30 14 -63z"/>
<path d="M4227 2352 c-9 -2 -17 -6 -17 -8 0 -3 -20 -95 -45 -205 -25 -110 -43
-204 -40 -210 7 -10 107 -11 175 -1 40 6 45 10 50 37 5 27 9 30 46 33 40 3 42
2 48 -31 7 -40 27 -47 127 -47 l59 0 0 33 c0 17 -11 77 -24 132 -13 55 -32
137 -41 183 -10 45 -23 83 -29 84 -20 3 -292 3 -309 0z m187 -177 c4 -27 10
-60 13 -72 4 -20 1 -23 -26 -23 -36 0 -36 1 -19 101 12 76 21 74 32 -6z"/>
<path d="M5365 2348 c-7 -4 -16 -25 -19 -45 -4 -21 -23 -104 -42 -186 -19 -81
-34 -159 -34 -172 0 -24 3 -25 58 -25 31 0 81 3 109 6 50 6 53 9 59 39 5 30
10 33 45 37 36 3 40 1 45 -22 3 -14 7 -30 9 -36 4 -15 54 -24 126 -24 51 0 59
3 59 19 0 24 -78 370 -90 398 -8 20 -14 21 -160 20 -83 -1 -157 -5 -165 -9z
m205 -245 c0 -19 -5 -23 -31 -23 -34 0 -33 -10 -8 115 l13 60 12 -65 c7 -36
13 -75 14 -87z"/>
<path d="M5971 2348 c-51 -14 -82 -38 -97 -75 -33 -77 -6 -134 87 -186 49 -28
59 -37 46 -43 -20 -7 -113 0 -141 11 -17 7 -18 4 -11 -46 4 -30 12 -59 17 -66
17 -21 81 -36 158 -37 127 -1 208 56 212 148 2 50 -25 83 -97 120 -32 17 -60
36 -62 42 -5 16 59 26 111 19 50 -8 58 4 47 71 -6 36 -9 39 -46 46 -57 10
-184 8 -224 -4z"/>
</g>
</svg>
