<?xml version="1.0" standalone="no"?>
<!DOCTYPE svg PUBLIC "-//W3C//DTD SVG 20010904//EN"
 "http://www.w3.org/TR/2001/REC-SVG-20010904/DTD/svg10.dtd">
<svg version="1.0" xmlns="http://www.w3.org/2000/svg"
 width="1024.000000pt" height="576.000000pt" viewBox="0 0 1024.000000 576.000000"
 preserveAspectRatio="xMidYMid meet">

<g transform="translate(0.000000,576.000000) scale(0.100000,-0.100000)"
fill="#000000" stroke="none">
<path d="M2557 5753 c1410 -2 3716 -2 5125 0 1410 1 257 2 -2562 2 -2819 0
-3972 -1 -2563 -2z"/>
<path d="M10231 5349 c-1 -17 -47 -88 -86 -133 -14 -16 -25 -32 -25 -35 1 -3
21 17 45 44 49 55 79 109 71 128 -3 7 -5 6 -5 -4z"/>
<path d="M1058 5303 c161 -2 422 -2 580 0 158 1 26 2 -293 2 -319 0 -448 -1
-287 -2z"/>
<path d="M3388 5293 c106 -2 277 -2 380 0 103 1 16 2 -193 2 -209 0 -293 -1
-187 -2z"/>
<path d="M4018 5293 c12 -2 32 -2 45 0 12 2 2 4 -23 4 -25 0 -35 -2 -22 -4z"/>
<path d="M4113 5293 c9 -2 25 -2 35 0 9 3 1 5 -18 5 -19 0 -27 -2 -17 -5z"/>
<path d="M508 5289 c-6 -10 -12 -1049 -7 -1049 7 0 18 1041 12 1049 -2 2 -4 2
-5 0z"/>
<path d="M5753 5283 c213 -2 561 -2 775 0 213 1 38 2 -388 2 -426 0 -601 -1
-387 -2z"/>
<path d="M9786 5158 c-6 -91 -6 -3161 0 -3123 3 17 11 3215 8 3215 -1 0 -4
-41 -8 -92z"/>
<path d="M10095 5159 c-4 -6 -5 -12 -2 -15 2 -3 7 2 10 11 7 17 1 20 -8 4z"/>
<path d="M650 4702 c0 -254 3 -462 8 -462 4 0 6 195 5 432 -1 238 2 437 7 443
11 13 3367 8 6380 -10 316 -1 1026 -4 1578 -5 l1002 -2 2 -1331 3 -1332 5
1345 c3 740 5 1346 4 1348 -1 3 -3676 18 -6861 28 l-2133 7 0 -461z"/>
<path d="M10035 5099 c-4 -6 -5 -12 -2 -15 2 -3 7 2 10 11 7 17 1 20 -8 4z"/>
<path d="M9979 5062 c-8 -9 -29 -27 -45 -40 -16 -12 -5 -8 23 10 29 18 53 36
53 41 0 12 -14 7 -31 -11z"/>
<path d="M9835 4950 c-3 -6 1 -7 9 -4 18 7 21 14 7 14 -6 0 -13 -4 -16 -10z"/>
<path d="M4614 4899 c-3 -6 -17 -8 -29 -5 -13 3 -26 3 -29 -2 -2 -4 26 -8 62
-9 37 0 52 1 34 4 -18 2 -30 9 -27 14 4 5 4 9 1 9 -3 0 -8 -5 -12 -11z"/>
<path d="M6154 4901 c4 -5 0 -11 -6 -14 -7 -3 -3 -4 9 -4 17 1 19 4 11 14 -12
15 -22 18 -14 4z"/>
<path d="M5546 4885 c4 -8 11 -15 16 -15 6 0 5 6 -2 15 -7 8 -14 15 -16 15 -2
0 -1 -7 2 -15z"/>
<path d="M7760 4890 c-21 -6 -19 -7 18 -11 23 -3 42 -3 42 -2 0 10 -40 19 -60
13z"/>
<path d="M1738 4883 c6 -2 18 -2 25 0 6 3 1 5 -13 5 -14 0 -19 -2 -12 -5z"/>
<path d="M5643 4883 c15 -2 39 -2 55 0 15 2 2 4 -28 4 -30 0 -43 -2 -27 -4z"/>
<path d="M5968 4883 c12 -2 30 -2 40 0 9 3 -1 5 -23 4 -22 0 -30 -2 -17 -4z"/>
<path d="M6418 4883 c7 -3 16 -2 19 1 4 3 -2 6 -13 5 -11 0 -14 -3 -6 -6z"/>
<path d="M6488 4883 c23 -2 59 -2 80 0 20 2 1 4 -43 4 -44 0 -61 -2 -37 -4z"/>
<path d="M7044 4870 c0 -13 4 -16 10 -10 7 7 7 13 0 20 -6 6 -10 3 -10 -10z"/>
<path d="M7406 4861 c9 -17 17 -31 19 -31 8 0 -9 40 -21 51 -10 8 -10 3 2 -20z"/>
<path d="M8348 4883 c7 -3 16 -2 19 1 4 3 -2 6 -13 5 -11 0 -14 -3 -6 -6z"/>
<path d="M8408 4883 c6 -2 18 -2 25 0 6 3 1 5 -13 5 -14 0 -19 -2 -12 -5z"/>
<path d="M8518 4883 c12 -2 32 -2 45 0 12 2 2 4 -23 4 -25 0 -35 -2 -22 -4z"/>
<path d="M9088 4883 c12 -2 32 -2 45 0 12 2 2 4 -23 4 -25 0 -35 -2 -22 -4z"/>
<path d="M9268 4883 c7 -3 16 -2 19 1 4 3 -2 6 -13 5 -11 0 -14 -3 -6 -6z"/>
<path d="M1566 4867 c3 -10 9 -15 12 -12 3 3 0 11 -7 18 -10 9 -11 8 -5 -6z"/>
<path d="M1958 4868 c5 -5 16 -8 23 -6 8 3 3 7 -10 11 -17 4 -21 3 -13 -5z"/>
<path d="M5742 4850 c0 -19 2 -27 5 -17 2 9 2 25 0 35 -3 9 -5 1 -5 -18z"/>
<path d="M6205 4850 c6 -40 20 -57 30 -38 5 7 4 10 -1 5 -5 -5 -14 7 -22 30
l-12 38 5 -35z"/>
<path d="M6753 4870 c16 -5 35 -14 43 -21 8 -6 17 -9 20 -6 8 8 -51 37 -73 36
-11 0 -7 -4 10 -9z"/>
<path d="M7628 4873 c6 -2 18 -2 25 0 6 3 1 5 -13 5 -14 0 -19 -2 -12 -5z"/>
<path d="M7895 4870 c-3 -5 -1 -10 4 -10 6 0 11 5 11 10 0 6 -2 10 -4 10 -3 0
-8 -4 -11 -10z"/>
<path d="M2311 4854 c0 -11 3 -14 6 -6 3 7 2 16 -1 19 -3 4 -6 -2 -5 -13z"/>
<path d="M2641 4854 c0 -11 3 -14 6 -6 3 7 2 16 -1 19 -3 4 -6 -2 -5 -13z"/>
<path d="M3561 4854 c0 -11 3 -14 6 -6 3 7 2 16 -1 19 -3 4 -6 -2 -5 -13z"/>
<path d="M4542 4778 c-1 -66 -6 -98 -14 -101 -10 -4 -10 -6 0 -6 14 -1 16 -27
2 -36 -6 -4 -7 1 -3 12 3 10 2 15 -2 10 -5 -4 -8 -62 -7 -130 1 -111 -1 -126
-23 -170 -24 -47 -34 -79 -14 -45 5 10 17 15 27 12 13 -5 14 -4 3 4 -9 7 -10
12 -2 16 6 4 11 17 12 29 0 21 1 21 8 2 5 -11 4 -22 -1 -23 -5 -2 -5 -9 1 -16
6 -7 11 -52 13 -102 3 -87 4 -89 28 -91 22 -1 22 -1 3 4 l-23 4 -3 362 c-1
199 -3 319 -5 265z m-2 -168 c0 -5 -2 -10 -4 -10 -3 0 -8 5 -11 10 -3 6 -1 10
4 10 6 0 11 -4 11 -10z"/>
<path d="M5871 4854 c0 -11 3 -14 6 -6 3 7 2 16 -1 19 -3 4 -6 -2 -5 -13z"/>
<path d="M8943 4860 c-35 -14 -27 -20 10 -8 17 6 34 13 36 14 8 7 -24 3 -46
-6z"/>
<path d="M1397 4849 c7 -7 15 -10 18 -7 3 3 -2 9 -12 12 -14 6 -15 5 -6 -5z"/>
<path d="M2001 4856 c2 -2 15 -9 29 -15 24 -11 24 -11 6 3 -16 13 -49 24 -35
12z"/>
<path d="M4310 4850 c8 -5 20 -10 25 -10 6 0 3 5 -5 10 -8 5 -19 10 -25 10 -5
0 -3 -5 5 -10z"/>
<path d="M5480 4850 c-8 -5 -10 -10 -5 -10 6 0 17 5 25 10 8 5 11 10 5 10 -5
0 -17 -5 -25 -10z"/>
<path d="M7820 4853 c0 -6 5 -15 10 -18 6 -4 9 -9 6 -13 -2 -4 0 -16 5 -27 7
-18 8 -17 6 5 -3 27 -26 73 -27 53z"/>
<path d="M8876 4846 c3 -9 13 -16 22 -16 8 0 13 1 11 3 -2 1 -12 9 -22 16 -15
12 -17 12 -11 -3z"/>
<path d="M5436 4841 c-4 -5 -2 -12 3 -15 5 -4 12 -2 15 3 4 5 2 12 -3 15 -5 4
-12 2 -15 -3z"/>
<path d="M7902 4825 c0 -16 2 -22 5 -12 2 9 2 23 0 30 -3 6 -5 -1 -5 -18z"/>
<path d="M2071 4835 c0 -5 17 -29 38 -53 32 -37 39 -41 50 -28 10 12 9 14 -6
12 -18 -3 -60 41 -55 57 1 5 -2 6 -7 3 -5 -4 -12 0 -14 6 -3 7 -6 9 -6 3z"/>
<path d="M6845 4820 c10 -11 20 -20 23 -20 3 0 -3 9 -13 20 -10 11 -20 20 -23
20 -3 0 3 -9 13 -20z"/>
<path d="M8303 4817 c-3 -33 -8 -51 -16 -64 -4 -6 -3 -14 2 -17 11 -7 35 84
24 95 -4 4 -9 -2 -10 -14z"/>
<path d="M8662 4825 c0 -23 15 -75 18 -60 1 6 3 18 5 28 2 9 -1 15 -5 12 -5
-3 -11 5 -13 17 -3 19 -4 19 -5 3z"/>
<path d="M8844 4825 c-15 -11 -16 -15 -4 -15 10 0 7 -5 -8 -13 -12 -7 -19 -16
-15 -21 4 -4 -7 -5 -24 -1 -18 3 -34 1 -37 -4 -3 -4 6 -7 19 -5 14 1 25 -3 25
-9 0 -6 15 4 33 21 19 18 34 39 34 47 0 18 1 18 -23 0z"/>
<path d="M9300 4808 c0 -23 3 -29 9 -19 8 12 4 51 -5 51 -2 0 -4 -15 -4 -32z"/>
<path d="M2301 4814 c0 -11 3 -14 6 -6 3 7 2 16 -1 19 -3 4 -6 -2 -5 -13z"/>
<path d="M5851 4806 c-11 -20 -17 -23 -32 -15 -16 8 -19 6 -19 -13 0 -19 2
-20 11 -8 9 12 12 13 16 1 5 -11 7 -11 15 0 8 11 9 11 5 -1 -2 -8 -9 -15 -15
-15 -21 0 -34 -23 -27 -45 5 -17 9 -19 16 -9 4 8 3 19 -3 26 -13 16 4 17 20 1
12 -12 13 -8 16 50 1 9 5 20 10 23 5 4 7 12 4 19 -2 7 -10 1 -17 -14z"/>
<path d="M7071 4814 c0 -11 3 -14 6 -6 3 7 2 16 -1 19 -3 4 -6 -2 -5 -13z"/>
<path d="M5389 4816 c-1 -3 -2 -10 -3 -15 0 -4 -18 -27 -39 -51 -20 -24 -35
-45 -32 -48 3 -3 6 -3 8 -1 1 2 21 27 45 56 24 29 38 54 32 58 -5 3 -11 4 -11
1z"/>
<path d="M1570 4738 c-1 -70 -1 -72 -16 -48 l-15 25 7 -25 c4 -14 11 -26 15
-28 5 -2 9 -13 9 -23 0 -11 -4 -17 -10 -14 -6 4 -10 -16 -10 -52 0 -60 -38
-163 -59 -163 -13 0 -10 -42 4 -53 6 -5 3 -7 -7 -4 -9 3 -19 3 -22 0 -8 -9 13
-43 27 -43 7 0 6 4 -3 10 -12 8 -9 10 13 10 19 0 27 -5 28 -17 1 -10 5 -2 9
17 5 23 8 28 9 13 0 -13 6 -23 12 -23 5 0 8 -3 5 -8 -2 -4 -1 -23 4 -42 5 -21
8 80 9 253 1 158 -1 287 -4 287 -3 0 -5 -33 -5 -72z m-52 -330 c-14 -10 -14
-14 -1 -34 10 -15 11 -24 3 -29 -6 -3 -9 -3 -8 2 1 4 -3 18 -10 30 -10 18 -9
24 5 32 24 14 32 13 11 -1z"/>
<path d="M5750 4770 c0 -24 4 -30 21 -30 15 0 19 4 15 16 -3 9 -6 19 -6 24 0
4 -7 10 -15 14 -11 4 -15 -2 -15 -24z m24 -5 c3 -8 1 -15 -4 -15 -6 0 -10 7
-10 15 0 8 2 15 4 15 2 0 6 -7 10 -15z"/>
<path d="M2660 4783 c0 -6 8 -17 18 -24 16 -13 16 -13 2 6 -8 11 -16 22 -17
24 -2 2 -3 0 -3 -6z"/>
<path d="M6220 4779 c0 -5 5 -7 10 -4 6 3 10 8 10 11 0 2 -4 4 -10 4 -5 0 -10
-5 -10 -11z"/>
<path d="M7435 4780 c3 -5 8 -10 11 -10 2 0 4 5 4 10 0 6 -5 10 -11 10 -5 0
-7 -4 -4 -10z"/>
<path d="M7562 4702 c-1 -70 -5 -93 -14 -89 -7 2 -21 0 -30 -5 -14 -6 -16 -5
-12 7 5 13 -5 19 -27 17 -3 -1 -12 25 -19 56 -7 31 -17 61 -21 66 -4 5 -3 -9
2 -30 5 -22 18 -79 29 -129 29 -137 68 -307 78 -340 18 -59 22 0 19 270 -1
149 -3 228 -5 177z"/>
<path d="M7901 4768 c0 -15 -6 -30 -13 -34 -7 -5 -8 -3 -3 6 5 9 4 11 -3 6
-11 -7 -17 6 -13 27 1 5 -3 6 -8 2 -7 -3 -1 -28 15 -62 30 -70 33 -73 32 -34
-1 17 -5 28 -9 25 -4 -2 -11 1 -15 7 -4 8 -3 9 5 5 15 -9 24 15 18 51 l-4 28
-2 -27z"/>
<path d="M1521 4767 c-8 -10 -7 -18 2 -31 11 -14 12 -13 12 14 1 35 1 34 -14
17z"/>
<path d="M4430 4775 c0 -2 6 -8 13 -14 10 -8 14 -7 14 2 0 8 -6 14 -14 14 -7
0 -13 -1 -13 -2z"/>
<path d="M6352 4745 c0 -16 2 -22 5 -12 2 9 2 23 0 30 -3 6 -5 -1 -5 -18z"/>
<path d="M2275 4736 c0 -13 3 -22 8 -19 4 2 7 13 7 24 0 10 -3 19 -7 19 -5 0
-8 -11 -8 -24z"/>
<path d="M3201 4744 c0 -11 3 -14 6 -6 3 7 2 16 -1 19 -3 4 -6 -2 -5 -13z"/>
<path d="M5042 4740 c0 -14 2 -19 5 -12 2 6 2 18 0 25 -3 6 -5 1 -5 -13z"/>
<path d="M7051 4744 c0 -11 3 -14 6 -6 3 7 2 16 -1 19 -3 4 -6 -2 -5 -13z"/>
<path d="M6230 4741 c0 -6 4 -13 10 -16 6 -3 7 1 4 9 -7 18 -14 21 -14 7z"/>
<path d="M8262 4725 c0 -16 2 -22 5 -12 2 9 2 23 0 30 -3 6 -5 -1 -5 -18z"/>
<path d="M8684 4720 c8 -59 84 -392 85 -372 1 8 24 12 79 12 101 0 122 6 122
35 0 16 -15 34 -50 60 -28 20 -57 38 -65 39 -8 1 -18 6 -22 11 -4 4 -2 5 5 1
19 -11 14 4 -12 35 -16 18 -26 24 -29 16 -8 -22 -14 137 -7 167 3 11 -1 21
-10 23 -13 4 -13 3 0 -6 8 -6 10 -11 4 -11 -6 0 -12 -15 -13 -32 -3 -55 -4
-58 -12 -58 -4 0 -11 9 -14 20 -3 11 -11 20 -16 20 -6 0 -5 -10 2 -22 11 -21
11 -22 -5 -9 -9 8 -15 20 -12 28 3 8 -1 16 -9 19 -8 4 -13 9 -11 13 2 3 -1 15
-5 26 -7 15 -8 11 -5 -15z m276 -324 c0 -6 -5 -3 -11 7 -12 21 -29 22 -29 1 0
-8 4 -13 8 -10 5 3 9 -1 9 -9 0 -10 -5 -11 -18 -4 -16 8 -17 13 -7 34 11 24
12 24 30 9 10 -10 18 -22 18 -28z m-60 24 c0 -5 -5 -10 -11 -10 -5 0 -7 5 -4
10 3 6 8 10 11 10 2 0 4 -4 4 -10z m-13 -36 c-3 -3 -12 -4 -19 -1 -8 3 -5 6 6
6 11 1 17 -2 13 -5z"/>
<path d="M9310 4739 c0 -5 5 -7 10 -4 6 3 10 8 10 11 0 2 -4 4 -10 4 -5 0 -10
-5 -10 -11z"/>
<path d="M2670 4733 c0 -7 5 -15 10 -18 6 -4 8 -10 5 -15 -3 -5 1 -37 9 -72 8
-35 27 -117 41 -183 35 -160 46 -205 55 -210 4 -2 7 10 8 28 0 18 4 72 7 122
7 84 -5 375 -13 310 -1 -16 -5 -37 -8 -45 -5 -13 -7 -12 -15 3 -6 9 -19 17
-29 17 -12 0 -20 -7 -20 -17 0 -15 -2 -16 -10 -3 -6 9 -5 19 2 28 9 10 8 12
-1 10 -8 -2 -15 5 -16 16 -4 22 -25 46 -25 29z m85 -93 c3 -6 -1 -7 -9 -4 -18
7 -21 14 -7 14 6 0 13 -4 16 -10z"/>
<path d="M8716 4732 c-3 -5 1 -9 9 -9 8 0 12 4 9 9 -3 4 -7 8 -9 8 -2 0 -6 -4
-9 -8z"/>
<path d="M2155 4720 c-3 -6 1 -7 9 -4 18 7 21 14 7 14 -6 0 -13 -4 -16 -10z"/>
<path d="M4482 4705 c6 -14 12 -24 12 -23 1 2 8 12 16 23 8 11 11 17 6 13 -5
-4 -17 -3 -27 3 -17 9 -18 7 -7 -16z"/>
<path d="M5775 4710 c3 -5 8 -10 11 -10 2 0 4 5 4 10 0 6 -5 10 -11 10 -5 0
-7 -4 -4 -10z"/>
<path d="M8281 4702 c-1 -15 -5 -21 -13 -16 -7 4 -8 3 -4 -5 4 -6 0 -23 -9
-37 -16 -25 -17 -25 -31 -7 -13 17 -14 17 -7 -2 6 -17 5 -18 -9 -7 -13 10 -17
10 -22 0 -3 -7 -4 -3 -2 8 2 12 0 27 -4 34 -10 17 -22 -199 -14 -262 4 -29 14
-59 23 -66 14 -11 14 -11 -1 -6 -15 5 -18 0 -18 -26 0 -17 4 -29 9 -26 5 4 12
0 14 -6 4 -9 6 -8 6 3 1 8 -5 21 -11 28 -9 9 -9 12 -1 7 13 -7 33 54 63 193
10 47 24 110 30 139 6 28 9 58 7 65 -3 6 -6 2 -6 -11z"/>
<path d="M3602 4695 c0 -11 4 -31 8 -45 6 -20 8 -21 8 -5 0 11 -4 31 -8 45 -6
20 -8 21 -8 5z"/>
<path d="M6620 4526 c0 -113 3 -187 9 -191 6 -3 19 3 31 15 30 30 27 94 -5
124 -28 27 -32 61 -10 102 19 37 19 78 1 94 -8 6 -12 18 -9 26 3 8 0 14 -5 14
-7 0 -11 -65 -12 -184z"/>
<path d="M2159 4627 c-5 -58 -12 -86 -28 -107 -26 -36 -26 -54 -1 -122 10 -29
24 -72 30 -95 6 -24 15 -43 20 -43 11 0 24 76 14 91 -4 7 -3 9 3 6 5 -3 14 18
20 46 7 29 21 94 32 146 12 52 21 96 21 98 0 2 -10 -6 -22 -19 -25 -25 -48
-34 -48 -17 0 5 -4 7 -10 4 -9 -6 -16 14 -23 65 -1 14 -5 -10 -8 -53z m-9
-121 c0 -2 -8 -10 -17 -17 -16 -13 -17 -12 -4 4 13 16 21 21 21 13z m26 -175
c-4 -5 0 -11 6 -14 7 -2 9 -8 5 -13 -9 -10 -28 16 -21 28 3 4 7 8 10 8 3 0 3
-4 0 -9z"/>
<path d="M2272 4680 c0 -14 2 -19 5 -12 2 6 2 18 0 25 -3 6 -5 1 -5 -13z"/>
<path d="M3185 4668 c-7 -31 -9 -37 -15 -55 -1 -5 -2 -12 -1 -17 1 -5 -5 -4
-13 4 -19 15 -21 34 -3 27 8 -3 14 3 14 14 2 17 0 18 -13 4 -10 -10 -21 -12
-32 -7 -45 22 -47 17 -48 -165 -1 -120 1 -171 9 -166 6 4 8 0 4 -11 -4 -9 -3
-15 2 -11 5 3 11 -1 14 -7 2 -7 7 3 11 22 8 40 49 221 73 323 8 37 13 70 11
73 -3 3 -9 -10 -13 -28z m-55 -48 c0 -5 -2 -10 -4 -10 -3 0 -8 5 -11 10 -3 6
-1 10 4 10 6 0 11 -4 11 -10z m10 -30 c0 -5 -2 -10 -4 -10 -3 0 -8 5 -11 10
-3 6 -1 10 4 10 6 0 11 -4 11 -10z"/>
<path d="M6246 4675 c38 -187 85 -397 94 -419 9 -20 9 -21 11 -1 1 11 4 31 6
45 17 99 6 407 -12 353 -6 -19 -10 -21 -28 -12 -17 10 -19 9 -14 -5 10 -25 -8
-19 -21 7 -7 14 -11 17 -12 7 -1 -8 -8 1 -16 20 -13 32 -14 33 -8 5z"/>
<path d="M1849 4649 c-1 -24 -2 -74 -4 -111 -2 -69 6 -84 25 -48 16 30 21 100
11 150 l-10 45 3 -47 c2 -26 0 -45 -4 -43 -3 2 -7 23 -9 47 -3 57 -11 62 -12
7z"/>
<path d="M4191 4674 c0 -11 3 -14 6 -6 3 7 2 16 -1 19 -3 4 -6 -2 -5 -13z"/>
<path d="M5300 4671 c-12 -24 -13 -34 -1 -27 9 6 22 46 15 46 -2 0 -8 -9 -14
-19z"/>
<path d="M5763 4668 c-1 -11 1 -16 5 -12 4 5 11 12 15 15 5 3 2 9 -5 12 -9 3
-14 -3 -15 -15z"/>
<path d="M5831 4674 c0 -11 3 -14 6 -6 3 7 2 16 -1 19 -3 4 -6 -2 -5 -13z"/>
<path d="M7015 4671 c-3 -12 -11 -19 -16 -15 -5 3 -8 0 -7 -8 2 -8 -4 -12 -15
-10 -11 2 -24 -4 -31 -14 -14 -19 -38 -11 -30 10 3 8 1 17 -5 20 -5 3 -12 -7
-16 -24 -4 -17 -21 -44 -38 -62 -20 -20 -25 -29 -14 -25 10 4 16 3 13 -2 -3
-5 6 -16 19 -25 14 -10 33 -32 42 -51 9 -19 19 -33 22 -31 12 8 1 -115 -12
-142 -12 -24 -12 -29 4 -44 17 -16 19 -16 25 17 3 18 3 38 -1 44 -3 6 -2 11 2
11 5 0 17 36 27 80 17 68 17 81 5 97 -13 16 -12 17 4 4 15 -12 17 -11 17 6 0
11 9 55 20 98 11 43 18 81 15 83 -3 3 -5 -1 -5 -9 0 -12 -2 -12 -9 0 -7 11
-10 9 -16 -8z m11 -25 c0 -13 -4 -24 -7 -23 -4 1 -16 -9 -28 -22 -12 -13 -21
-20 -22 -15 0 5 -2 17 -4 27 -4 19 11 24 17 5 3 -7 13 2 23 20 11 18 20 32 21
32 1 0 1 -11 0 -24z m-78 -361 c-1 -14 -6 -25 -11 -25 -5 0 -6 7 -3 16 3 9 6
20 6 25 0 5 2 9 5 9 3 0 4 -11 3 -25z"/>
<path d="M1260 4660 c0 -11 2 -20 4 -20 2 0 6 9 9 20 3 11 1 20 -4 20 -5 0 -9
-9 -9 -20z"/>
<path d="M4800 4635 l0 -45 93 1 92 2 -75 7 c-41 4 -78 5 -82 3 -5 -2 -8 14
-8 36 0 23 -4 41 -10 41 -5 0 -10 -20 -10 -45z"/>
<path d="M4853 4673 c-6 -5 34 -8 88 -9 54 0 99 2 99 6 0 10 -172 12 -187 3z"/>
<path d="M3924 4475 c0 -110 2 -156 3 -103 2 53 2 143 0 200 -1 57 -3 13 -3
-97z"/>
<path d="M2241 4644 c0 -11 3 -14 6 -6 3 7 2 16 -1 19 -3 4 -6 -2 -5 -13z"/>
<path d="M4231 4644 c0 -11 3 -14 6 -6 3 7 2 16 -1 19 -3 4 -6 -2 -5 -13z"/>
<path d="M9203 4653 c9 -2 23 -2 30 0 6 3 -1 5 -18 5 -16 0 -22 -2 -12 -5z"/>
<path d="M4978 4643 c7 -3 16 -2 19 1 4 3 -2 6 -13 5 -11 0 -14 -3 -6 -6z"/>
<path d="M5809 4641 c9 -6 10 -11 3 -15 -6 -4 -9 -12 -6 -19 3 -8 -4 -13 -15
-13 -14 0 -17 4 -11 12 12 13 -28 34 -66 34 -32 0 -124 -39 -124 -52 0 -6 7
-5 15 2 31 26 121 21 111 -6 -5 -13 5 -18 32 -15 6 1 12 -4 12 -10 0 -7 9 -2
20 11 22 25 26 20 10 -10 -8 -15 -7 -18 4 -14 7 3 16 17 20 32 3 15 8 37 12
50 5 17 2 22 -12 22 -15 0 -16 -2 -5 -9z m-99 -21 c0 -5 -7 -7 -15 -4 -8 4
-15 8 -15 10 0 2 7 4 15 4 8 0 15 -4 15 -10z"/>
<path d="M7237 4576 c-11 -124 -10 -136 13 -136 17 0 19 5 14 43 -3 23 -9 71
-13 107 l-7 65 -7 -79z"/>
<path d="M8477 4576 c-11 -124 -10 -136 13 -136 21 0 21 0 1 160 l-7 55 -7
-79z"/>
<path d="M9143 4643 c-15 -6 -17 -29 -3 -38 6 -3 7 1 4 9 -4 11 2 19 17 25 13
5 17 10 9 10 -8 -1 -21 -3 -27 -6z"/>
<path d="M6032 4578 c-1 -34 -4 -75 -8 -92 -3 -17 -3 -28 1 -24 5 4 14 0 22
-10 12 -15 13 -11 8 28 -3 25 -7 69 -9 98 -6 74 -12 74 -14 0z"/>
<path d="M4192 4493 c-2 -122 0 -143 13 -143 16 0 36 39 34 68 0 9 -4 5 -9
-10 -19 -64 -25 -47 -30 87 l-6 140 -2 -142z"/>
<path d="M2476 4609 c-2 -8 -7 -49 -11 -91 -5 -73 -4 -78 13 -78 18 0 19 6 15
88 -6 89 -9 106 -17 81z"/>
<path d="M4993 4605 c0 -7 3 -14 6 -13 28 3 31 -6 31 -79 0 -100 10 -89 14 16
3 69 1 81 -12 76 -8 -3 -20 -1 -27 5 -8 7 -12 5 -12 -5z"/>
<path d="M1261 4543 c0 -40 2 -73 7 -73 4 0 6 24 4 52 -5 89 -9 97 -11 21z"/>
<path d="M9194 4595 c-5 -13 -9 -13 -23 -3 -14 12 -15 11 -2 -5 8 -9 16 -16
18 -13 2 2 18 -9 36 -25 17 -16 36 -29 41 -29 5 0 -4 10 -20 22 -16 12 -32 27
-36 33 -11 15 -10 27 2 20 6 -3 10 -1 10 4 0 17 -20 13 -26 -4z"/>
<path d="M5158 4593 c7 -3 16 -2 19 1 4 3 -2 6 -13 5 -11 0 -14 -3 -6 -6z"/>
<path d="M5675 4590 c-3 -5 -1 -10 4 -10 6 0 11 5 11 10 0 6 -2 10 -4 10 -3 0
-8 -4 -11 -10z"/>
<path d="M3390 4544 c0 -16 -3 -46 -6 -66 -6 -34 -4 -38 15 -38 12 0 21 6 21
15 0 8 -5 15 -11 15 -5 0 -7 -4 -4 -10 3 -5 1 -10 -4 -10 -6 0 -11 9 -11 21 0
11 4 18 9 15 11 -7 9 69 -2 80 -4 4 -7 -6 -7 -22z"/>
<path d="M5270 4530 c0 -25 -6 -42 -16 -48 -14 -8 -13 -10 5 -15 19 -5 21 -1
21 49 0 30 -2 54 -5 54 -3 0 -5 -18 -5 -40z"/>
<path d="M5240 4550 c0 -8 5 -22 10 -30 9 -13 10 -13 10 0 0 8 -5 22 -10 30
-9 13 -10 13 -10 0z"/>
<path d="M5561 4534 c0 -11 3 -14 6 -6 3 7 2 16 -1 19 -3 4 -6 -2 -5 -13z"/>
<path d="M5739 4536 c-2 -3 -28 -6 -56 -7 -42 -2 -53 -6 -57 -22 -4 -17 -8
-18 -20 -8 -9 7 -16 8 -20 2 -4 -5 -2 -12 3 -16 6 -3 8 -12 5 -20 -4 -8 -10
-12 -15 -9 -5 3 -7 10 -4 15 4 5 1 17 -4 26 -9 15 -10 14 -11 -10 0 -42 86
-115 91 -77 3 20 5 25 15 44 10 16 12 16 17 2 4 -10 1 -16 -8 -16 -11 0 -12
-6 -6 -22 6 -16 20 -25 50 -31 32 -6 41 -13 41 -29 0 -32 6 -18 14 30 4 29 3
41 -4 37 -5 -3 -10 -1 -10 4 0 6 6 11 14 11 8 0 17 15 20 36 4 19 10 43 13 52
6 15 5 15 -11 3 -13 -11 -20 -11 -28 -3 -13 13 -22 15 -29 8z m-92 -40 c-3 -7
-1 -18 4 -23 6 -6 4 -19 -4 -36 -14 -27 -15 -27 -36 -10 -20 17 -21 20 -6 38
8 11 14 15 13 9 -3 -12 1 -14 24 -14 9 0 9 3 1 11 -11 11 -7 39 4 39 3 0 3 -6
0 -14z m63 -87 c0 -5 -4 -9 -10 -9 -5 0 -10 7 -10 16 0 8 5 12 10 9 6 -3 10
-10 10 -16z m55 -1 c6 -4 2 -8 -7 -8 -10 0 -18 7 -18 17 0 9 3 12 8 7 4 -5 12
-12 17 -16z"/>
<path d="M9283 4514 c-4 -10 1 -22 12 -30 11 -9 20 -30 22 -56 6 -63 20 -78
16 -16 -5 76 -6 78 -14 73 -11 -7 -32 23 -24 35 3 5 4 10 0 10 -3 0 -8 -7 -12
-16z"/>
<path d="M3641 4504 c0 -11 3 -14 6 -6 3 7 2 16 -1 19 -3 4 -6 -2 -5 -13z"/>
<path d="M3656 4455 c3 -16 8 -37 11 -45 4 -8 6 -24 5 -35 0 -15 1 -16 4 -4 3
10 14 19 26 22 21 6 16 27 -6 27 -7 0 -20 15 -29 33 l-17 32 6 -30z m39 -53
c-3 -3 -11 0 -18 7 -9 10 -8 11 6 5 10 -3 15 -9 12 -12z"/>
<path d="M1842 4412 c0 -23 3 -40 8 -37 5 3 12 0 16 -6 4 -7 3 -9 -4 -5 -20
12 -23 -13 -4 -31 11 -10 22 -25 25 -33 4 -8 4 4 1 28 -3 23 -13 62 -23 85
l-18 42 -1 -43z"/>
<path d="M5256 4435 c4 -8 8 -15 10 -15 2 0 4 7 4 15 0 8 -4 15 -10 15 -5 0
-7 -7 -4 -15z"/>
<path d="M4802 4395 c0 -25 5 -45 10 -45 5 0 8 17 6 38 l-3 37 78 3 c48 2 84
-2 93 -8 14 -12 34 -6 34 11 0 5 -48 9 -110 9 l-109 0 1 -45z"/>
<path d="M5277 4411 c-4 -17 -3 -21 5 -13 5 5 8 16 6 23 -3 8 -7 3 -11 -10z"/>
<path d="M1440 4370 c-14 -11 -46 -27 -72 -36 -27 -8 -48 -17 -48 -18 0 -2 13
-3 29 -2 16 1 27 4 24 9 -2 4 4 8 14 8 24 2 25 2 46 -6 11 -5 17 -2 17 8 0 8
7 20 15 27 16 13 20 30 8 30 -5 0 -19 -9 -33 -20z m8 -19 c-7 -11 -16 -17 -21
-14 -4 3 0 11 10 19 24 18 25 17 11 -5z"/>
<path d="M5290 4376 c0 -8 4 -17 9 -20 5 -4 7 3 4 14 -6 23 -13 26 -13 6z"/>
<path d="M7825 4370 c4 -14 7 -47 6 -75 -1 -36 2 -46 9 -35 5 8 7 24 5 35 -3
11 6 -2 19 -30 34 -70 32 -51 -5 42 -31 78 -48 110 -34 63z"/>
<path d="M5038 4265 l4 -115 -224 -3 -223 -3 225 1 225 0 3 103 c1 56 -1 109
-5 117 -4 7 -6 -38 -5 -100z"/>
<path d="M4948 4353 c12 -2 32 -2 45 0 12 2 2 4 -23 4 -25 0 -35 -2 -22 -4z"/>
<path d="M9321 4334 c0 -11 3 -14 6 -6 3 7 2 16 -1 19 -3 4 -6 -2 -5 -13z"/>
<path d="M3681 4324 c0 -11 3 -14 6 -6 3 7 2 16 -1 19 -3 4 -6 -2 -5 -13z"/>
<path d="M1280 4316 c0 -2 7 -7 16 -10 8 -3 12 -2 9 4 -6 10 -25 14 -25 6z"/>
<path d="M1850 4304 c0 -8 5 -12 10 -9 6 3 10 10 10 16 0 5 -4 9 -10 9 -5 0
-10 -7 -10 -16z"/>
<path d="M5323 4302 c0 -12 3 -19 6 -17 2 3 14 -3 25 -12 16 -13 14 -10 -4 12
-14 17 -26 32 -27 34 -1 2 -1 -6 0 -17z"/>
<path d="M9310 4288 c-12 -22 -12 -22 6 -6 10 10 15 20 12 24 -4 3 -12 -5 -18
-18z"/>
<path d="M3691 4290 c0 -8 4 -24 9 -35 5 -13 9 -14 9 -5 0 8 -4 24 -9 35 -5
13 -9 14 -9 5z"/>
<path d="M2448 4265 c-3 -13 -1 -22 3 -19 5 3 9 11 9 19 0 7 6 16 13 18 7 4 6
6 -4 6 -10 1 -19 -9 -21 -24z"/>
<path d="M2498 4265 c2 -14 6 -25 8 -25 2 0 4 11 4 25 0 14 -4 25 -9 25 -4 0
-6 -11 -3 -25z"/>
<path d="M3370 4275 c0 -8 2 -15 4 -15 2 0 6 7 10 15 3 8 1 15 -4 15 -6 0 -10
-7 -10 -15z"/>
<path d="M3421 4264 c0 -16 4 -38 9 -49 6 -13 7 -5 3 25 -7 53 -13 66 -12 24z"/>
<path d="M4421 4246 c-24 -25 -38 -46 -33 -50 6 -3 13 -2 17 4 3 5 3 10 0 10
-3 0 4 10 15 23 12 12 25 22 31 22 5 0 9 4 8 9 0 5 5 13 13 17 7 5 8 9 3 9 -6
0 -30 -20 -54 -44z"/>
<path d="M6005 4254 c-3 -20 -4 -39 -1 -42 3 -3 6 4 6 16 0 12 4 22 8 22 4 0
8 9 8 20 0 33 -13 23 -21 -16z"/>
<path d="M6040 4276 c0 -7 6 -18 13 -24 10 -8 13 -5 15 14 1 15 -3 24 -13 24
-8 0 -15 -6 -15 -14z"/>
<path d="M7222 4265 c3 -14 1 -25 -3 -25 -5 0 -9 -10 -8 -22 0 -22 1 -22 11 2
6 14 10 33 9 42 -1 11 5 16 19 15 11 -1 19 -6 16 -13 -2 -6 0 -17 5 -25 6 -10
9 -4 9 19 0 29 -3 32 -31 32 -28 0 -31 -3 -27 -25z"/>
<path d="M8463 4270 c1 -11 6 -18 12 -16 5 2 9 9 8 15 -4 17 15 13 26 -6 9
-16 10 -16 11 5 0 18 -5 22 -29 22 -24 0 -29 -4 -28 -20z"/>
<path d="M1855 4270 c-3 -6 1 -7 9 -4 18 7 21 14 7 14 -6 0 -13 -4 -16 -10z"/>
<path d="M3080 4252 c0 -12 4 -22 9 -22 10 0 9 26 -2 36 -4 4 -7 -2 -7 -14z"/>
<path d="M8170 4263 c0 -4 5 -15 10 -23 8 -13 10 -13 10 2 0 9 -4 20 -10 23
-5 3 -10 3 -10 -2z"/>
<path d="M9279 4243 c-13 -16 -12 -17 4 -4 16 13 21 21 13 21 -2 0 -10 -8 -17
-17z"/>
<path d="M888 4243 c6 -2 18 -2 25 0 6 3 1 5 -13 5 -14 0 -19 -2 -12 -5z"/>
<path d="M978 4243 c7 -3 16 -2 19 1 4 3 -2 6 -13 5 -11 0 -14 -3 -6 -6z"/>
<path d="M6884 4228 c-10 -13 -12 -17 -4 -10 18 15 34 16 24 0 -4 -7 -3 -8 4
-4 14 8 16 36 4 36 -5 0 -17 -10 -28 -22z"/>
<path d="M1303 4233 c15 -2 39 -2 55 0 15 2 2 4 -28 4 -30 0 -43 -2 -27 -4z"/>
<path d="M3362 4215 c0 -16 2 -22 5 -12 2 9 2 23 0 30 -3 6 -5 -1 -5 -18z"/>
<path d="M8451 4224 c0 -11 3 -14 6 -6 3 7 2 16 -1 19 -3 4 -6 -2 -5 -13z"/>
<path d="M487 4222 c8 -5 13 -44 16 -107 l3 -100 2 108 c2 96 0 107 -15 107
-13 0 -14 -3 -6 -8z"/>
<path d="M645 4176 c0 -66 6 -64 15 4 4 33 3 50 -4 50 -7 0 -11 -22 -11 -54z"/>
<path d="M898 4223 c7 -3 16 -2 19 1 4 3 -2 6 -13 5 -11 0 -14 -3 -6 -6z"/>
<path d="M953 4223 c9 -2 25 -2 35 0 9 3 1 5 -18 5 -19 0 -27 -2 -17 -5z"/>
<path d="M1572 4200 c0 -19 2 -27 5 -17 2 9 2 25 0 35 -3 9 -5 1 -5 -18z"/>
<path d="M1901 4220 c0 -8 4 -24 9 -35 l9 -20 0 20 c0 11 -4 27 -9 35 -9 13
-10 13 -9 0z"/>
<path d="M2441 4214 c0 -11 3 -14 6 -6 3 7 2 16 -1 19 -3 4 -6 -2 -5 -13z"/>
<path d="M2512 4205 c0 -16 2 -22 5 -12 2 9 2 23 0 30 -3 6 -5 -1 -5 -18z"/>
<path d="M6072 4210 c0 -14 2 -19 5 -12 2 6 2 18 0 25 -3 6 -5 1 -5 -13z"/>
<path d="M5424 4206 c11 -9 24 -16 30 -16 12 0 7 5 -24 19 -24 11 -24 11 -6
-3z"/>
<path d="M6931 4204 c0 -11 3 -14 6 -6 3 7 2 16 -1 19 -3 4 -6 -2 -5 -13z"/>
<path d="M9230 4199 c-22 -18 -22 -19 -3 -10 12 6 25 16 28 21 9 15 3 12 -25
-11z"/>
<path d="M7559 4182 c-3 -20 -2 -29 4 -23 5 5 7 19 5 32 -3 20 -5 19 -9 -9z"/>
<path d="M7905 4180 c9 -16 18 -30 21 -30 2 0 -2 14 -11 30 -9 17 -18 30 -21
30 -2 0 2 -13 11 -30z"/>
<path d="M6829 4183 c-13 -16 -12 -17 4 -4 9 7 17 15 17 17 0 8 -8 3 -21 -13z"/>
<path d="M7202 4170 c0 -14 2 -19 5 -12 2 6 2 18 0 25 -3 6 -5 1 -5 -13z"/>
<path d="M8439 4162 c-3 -20 -2 -29 4 -23 5 5 7 19 5 32 -3 20 -5 19 -9 -9z"/>
<path d="M6790 4170 c-13 -8 -12 -10 3 -10 9 0 17 5 17 10 0 12 -1 12 -20 0z"/>
<path d="M2118 4163 c6 -2 18 -2 25 0 6 3 1 5 -13 5 -14 0 -19 -2 -12 -5z"/>
<path d="M1579 4147 c4 -4 66 -6 137 -5 l129 3 -137 5 c-75 3 -134 1 -129 -3z"/>
<path d="M2028 4153 c7 -3 16 -2 19 1 4 3 -2 6 -13 5 -11 0 -14 -3 -6 -6z"/>
<path d="M2253 4153 c9 -2 23 -2 30 0 6 3 -1 5 -18 5 -16 0 -22 -2 -12 -5z"/>
<path d="M2688 4153 c6 -2 18 -2 25 0 6 3 1 5 -13 5 -14 0 -19 -2 -12 -5z"/>
<path d="M3173 4153 c9 -2 23 -2 30 0 6 3 -1 5 -18 5 -16 0 -22 -2 -12 -5z"/>
<path d="M3618 4153 c6 -2 18 -2 25 0 6 3 1 5 -13 5 -14 0 -19 -2 -12 -5z"/>
<path d="M4248 4153 c6 -2 18 -2 25 0 6 3 1 5 -13 5 -14 0 -19 -2 -12 -5z"/>
<path d="M5813 4153 c9 -2 23 -2 30 0 6 3 -1 5 -18 5 -16 0 -22 -2 -12 -5z"/>
<path d="M6268 4153 c12 -2 30 -2 40 0 9 3 -1 5 -23 4 -22 0 -30 -2 -17 -4z"/>
<path d="M6718 4153 c6 -2 18 -2 25 0 6 3 1 5 -13 5 -14 0 -19 -2 -12 -5z"/>
<path d="M7013 4153 c9 -2 23 -2 30 0 6 3 -1 5 -18 5 -16 0 -22 -2 -12 -5z"/>
<path d="M7468 4153 c6 -2 18 -2 25 0 6 3 1 5 -13 5 -14 0 -19 -2 -12 -5z"/>
<path d="M8073 4153 c9 -2 23 -2 30 0 6 3 -1 5 -18 5 -16 0 -22 -2 -12 -5z"/>
<path d="M8263 4153 c9 -2 23 -2 30 0 6 3 -1 5 -18 5 -16 0 -22 -2 -12 -5z"/>
<path d="M8718 4153 c12 -2 30 -2 40 0 9 3 -1 5 -23 4 -22 0 -30 -2 -17 -4z"/>
<path d="M9100 4150 c-18 -12 -2 -12 25 0 13 6 15 9 5 9 -8 0 -22 -4 -30 -9z"/>
<path d="M1073 4143 c37 -2 97 -2 135 0 37 2 6 3 -68 3 -74 0 -105 -1 -67 -3z"/>
<path d="M1978 4143 c7 -3 16 -2 19 1 4 3 -2 6 -13 5 -11 0 -14 -3 -6 -6z"/>
<path d="M2328 4143 c6 -2 18 -2 25 0 6 3 1 5 -13 5 -14 0 -19 -2 -12 -5z"/>
<path d="M2608 4143 c6 -2 18 -2 25 0 6 3 1 5 -13 5 -14 0 -19 -2 -12 -5z"/>
<path d="M2883 4143 c37 -2 96 -2 130 0 34 2 4 3 -68 3 -71 0 -99 -1 -62 -3z"/>
<path d="M3258 4143 c7 -3 16 -2 19 1 4 3 -2 6 -13 5 -11 0 -14 -3 -6 -6z"/>
<path d="M3538 4143 c6 -2 18 -2 25 0 6 3 1 5 -13 5 -14 0 -19 -2 -12 -5z"/>
<path d="M3968 4143 c6 -2 18 -2 25 0 6 3 1 5 -13 5 -14 0 -19 -2 -12 -5z"/>
<path d="M4198 4143 c6 -2 18 -2 25 0 6 3 1 5 -13 5 -14 0 -19 -2 -12 -5z"/>
<path d="M5888 4143 c6 -2 18 -2 25 0 6 3 1 5 -13 5 -14 0 -19 -2 -12 -5z"/>
<path d="M6168 4143 c6 -2 18 -2 25 0 6 3 1 5 -13 5 -14 0 -19 -2 -12 -5z"/>
<path d="M6383 4143 c9 -2 25 -2 35 0 9 3 1 5 -18 5 -19 0 -27 -2 -17 -5z"/>
<path d="M6618 4143 c12 -2 30 -2 40 0 9 3 -1 5 -23 4 -22 0 -30 -2 -17 -4z"/>
<path d="M7098 4143 c7 -3 16 -2 19 1 4 3 -2 6 -13 5 -11 0 -14 -3 -6 -6z"/>
<path d="M7383 4143 c9 -2 23 -2 30 0 6 3 -1 5 -18 5 -16 0 -22 -2 -12 -5z"/>
<path d="M7643 4143 c37 -2 96 -2 130 0 34 2 4 3 -68 3 -71 0 -99 -1 -62 -3z"/>
<path d="M8008 4143 c7 -3 16 -2 19 1 4 3 -2 6 -13 5 -11 0 -14 -3 -6 -6z"/>
<path d="M8338 4143 c6 -2 18 -2 25 0 6 3 1 5 -13 5 -14 0 -19 -2 -12 -5z"/>
<path d="M8623 4143 c9 -2 23 -2 30 0 6 3 -1 5 -18 5 -16 0 -22 -2 -12 -5z"/>
<path d="M3318 4133 c7 -3 16 -2 19 1 4 3 -2 6 -13 5 -11 0 -14 -3 -6 -6z"/>
<path d="M3458 4133 c7 -3 16 -2 19 1 4 3 -2 6 -13 5 -11 0 -14 -3 -6 -6z"/>
<path d="M5968 4133 c7 -3 16 -2 19 1 4 3 -2 6 -13 5 -11 0 -14 -3 -6 -6z"/>
<path d="M7930 4136 c0 -2 9 -6 20 -9 11 -3 18 -1 14 4 -5 9 -34 13 -34 5z"/>
<path d="M8998 4133 c7 -3 16 -2 19 1 4 3 -2 6 -13 5 -11 0 -14 -3 -6 -6z"/>
<path d="M645 3595 c0 -286 1 -402 2 -257 2 145 2 379 0 520 -1 141 -2 23 -2
-263z"/>
<path d="M9163 4078 c-8 -14 -13 -38 -8 -38 1 0 10 11 19 25 9 14 12 25 7 25
-5 0 -13 -6 -18 -12z"/>
<path d="M495 3280 c0 -289 1 -407 2 -262 2 144 2 380 0 525 -1 144 -2 26 -2
-263z"/>
<path d="M644 2975 c0 -55 1 -76 3 -47 2 29 2 74 0 100 -2 26 -3 2 -3 -53z"/>
<path d="M634 2595 c0 -60 1 -84 3 -52 2 32 2 81 0 110 -2 29 -3 3 -3 -58z"/>
<path d="M482 2585 c0 -16 2 -22 5 -12 2 9 2 23 0 30 -3 6 -5 -1 -5 -18z"/>
<path d="M632 2425 c0 -16 2 -22 5 -12 2 9 2 23 0 30 -3 6 -5 -1 -5 -18z"/>
<path d="M9632 2405 c0 -16 2 -22 5 -12 2 9 2 23 0 30 -3 6 -5 -1 -5 -18z"/>
<path d="M484 2160 c0 -135 2 -190 3 -122 2 67 2 177 0 245 -1 67 -3 12 -3
-123z"/>
<path d="M9633 2325 c0 -22 2 -30 4 -17 2 12 2 30 0 40 -3 9 -5 -1 -4 -23z"/>
<path d="M633 2255 c0 -33 2 -45 4 -27 2 18 2 45 0 60 -2 15 -4 0 -4 -33z"/>
<path d="M633 2130 c0 -36 2 -50 4 -32 2 17 2 47 0 65 -2 17 -4 3 -4 -33z"/>
<path d="M635 1670 c0 -217 1 -306 2 -197 2 108 2 286 0 395 -1 108 -2 19 -2
-198z"/>
<path d="M9783 1960 c0 -25 2 -35 4 -22 2 12 2 32 0 45 -2 12 -4 2 -4 -23z"/>
<path d="M476 1285 c-5 -335 -10 -640 -12 -677 -1 -39 2 -73 9 -82 11 -15 390
-16 4645 -16 2773 0 4640 3 4650 9 19 10 19 27 12 261 l-4 125 -6 -180 -5
-180 -102 -3 c-58 -1 -103 -7 -103 -12 0 -6 -7 -10 -15 -10 -8 0 -15 5 -15 10
0 7 -1514 10 -4523 10 l-4523 0 4 658 c3 361 3 666 0 677 -2 11 -8 -254 -12
-590z"/>
<path d="M9783 1820 c0 -36 2 -50 4 -32 2 17 2 47 0 65 -2 17 -4 3 -4 -33z"/>
<path d="M9783 1650 c0 -41 2 -58 4 -37 2 20 2 54 0 75 -2 20 -4 3 -4 -38z"/>
<path d="M9783 1495 c0 -33 2 -45 4 -27 2 18 2 45 0 60 -2 15 -4 0 -4 -33z"/>
<path d="M9781 1404 c0 -11 3 -14 6 -6 3 7 2 16 -1 19 -3 4 -6 -2 -5 -13z"/>
<path d="M9783 1325 c0 -27 2 -38 4 -22 2 15 2 37 0 50 -2 12 -4 0 -4 -28z"/>
<path d="M9396 1287 c3 -10 9 -15 12 -12 3 3 0 11 -7 18 -10 9 -11 8 -5 -6z"/>
<path d="M634 1120 c0 -85 2 -120 3 -77 2 42 2 112 0 155 -1 42 -3 7 -3 -78z"/>
<path d="M627 888 c-9 -123 -9 -208 0 -208 5 0 10 63 12 140 1 77 0 140 -2
140 -3 0 -7 -33 -10 -72z"/>
<path d="M998 683 c6 -2 18 -2 25 0 6 3 1 5 -13 5 -14 0 -19 -2 -12 -5z"/>
<path d="M888 3 c490 -2 1294 -2 1785 0 490 1 89 2 -893 2 -982 0 -1383 -1
-892 -2z"/>
<path d="M9183 3 c197 -2 517 -2 710 0 194 1 33 2 -358 2 -390 0 -549 -1 -352
-2z"/>
</g>
</svg>
