<?xml version="1.0" encoding="UTF-8" standalone="no" ?>
<!DOCTYPE svg PUBLIC "-//W3C//DTD SVG 1.1//EN" "http://www.w3.org/Graphics/SVG/1.1/DTD/svg11.dtd">
<svg xmlns="http://www.w3.org/2000/svg" xmlns:xlink="http://www.w3.org/1999/xlink" version="1.1" width="480" height="360" viewBox="0 0 640 480" xml:space="preserve">
<desc>Created with Fabric.js 3.6.3</desc>
<defs>
</defs>
<g transform="matrix(2.31 0 0 4.6 319.25 239.17)"  >
<g style=""   >
		<g transform="matrix(3.07 0 0 2.09 0 0)"  >
<radialGradient id="SVGID_SVGID_SVGID_726_7_5" gradientUnits="userSpaceOnUse" gradientTransform="matrix(1 0 0 1 -45 -25)"  cx="45" cy="25" r="45" fx="45" fy="25">
<stop offset="21.951%" style="stop-color:rgb(255,165,0);stop-opacity: 1"/>
<stop offset="100%" style="stop-color:rgb(111,145,205);stop-opacity: 0.99"/>
</radialGradient>
<rect style="stroke: none; stroke-width: 1; stroke-dasharray: NaN; stroke-linecap: butt; stroke-dashoffset: 0; stroke-linejoin: round; stroke-miterlimit: 4; fill: url(#SVGID_SVGID_SVGID_726_7_5); fill-rule: nonzero; opacity: 1;" vector-effect="non-scaling-stroke"  x="-45" y="-25" rx="0" ry="0" width="90" height="50" />
</g>
		<g transform="matrix(0.66 0 0 0.62 5.96 25.2)" style=""  >
		<text xml:space="preserve" font-family="'Open Sans', sans-serif" font-size="48" font-style="normal" font-weight="bold" style="stroke: rgb(231,245,246); stroke-opacity: 0; stroke-width: 1; stroke-dasharray: NaN NaN; stroke-linecap: butt; stroke-dashoffset: 0; stroke-linejoin: miter; stroke-miterlimit: 4; fill: rgb(92,125,158); fill-opacity: 0.89; fill-rule: nonzero; opacity: 1; white-space: pre;" ><tspan x="-113.83" y="15.08" >CABANAS</tspan></text>
</g>
		<g transform="matrix(1.42 0 0 0.6 4.7 -16.24)"  >
<path style="stroke: rgb(66,119,126); stroke-width: 8; stroke-dasharray: none; stroke-linecap: butt; stroke-dashoffset: 0; stroke-linejoin: miter; stroke-miterlimit: 4; fill: rgb(146,146,85); fill-rule: nonzero; opacity: 1;" vector-effect="non-scaling-stroke"  transform=" translate(-57.95, -28.98)" d="m 0 57.952755 l 0 0 c 0 -32.006424 25.946333 -57.952755 57.952755 -57.952755 c 32.006428 0 57.952755 25.946333 57.952755 57.952755 l -28.97638 0 c 0 -16.003212 -12.97316 -28.976377 -28.976376 -28.976377 c -16.003212 0 -28.976377 12.9731655 -28.976377 28.976377 z" stroke-linecap="round" />
</g>
</g>
</g>
</svg>